<svg id="Layer_1" height="512" viewBox="0 0 512 512" width="512" xmlns="http://www.w3.org/2000/svg" data-name="Layer 1"><path d="m256 0c-141.38 0-256 114.62-256 256s114.62 256 256 256 256-114.62 256-256-114.62-256-256-256zm164.64 256a28.812 28.812 0 0 1 -28.79 28.8h-107v107.05a28.79 28.79 0 0 1 -28.79 28.79h-.06a28.812 28.812 0 0 1 -28.8-28.79v-107h-107a28.79 28.79 0 0 1 -28.84-28.74v-.11a28.816 28.816 0 0 1 28.79-28.8h107v-107a28.79 28.79 0 0 1 28.74-28.84h.11a28.812 28.812 0 0 1 28.8 28.79v107h107.05a28.79 28.79 0 0 1 28.79 28.79z" fill="#390"/></svg>