<svg id="Layer_1" enable-background="new 0 0 400 400" height="512" viewBox="0 0 400 400" width="512" xmlns="http://www.w3.org/2000/svg"><g><path d="m182.7 238.9-35.7-35.7c-1.4-1.4-1.4-3.7 0-5.1s3.7-1.4 5.1 0l30.6 30.6 65.1-65.1c1.4-1.4 3.7-1.4 5.1 0s1.4 3.7 0 5.1z"/><path d="m365.4 382h-330.8c-9.2 0-16.6-7.4-16.6-16.6v-330.8c0-9.2 7.4-16.6 16.6-16.6h330.8c9.2 0 16.6 7.4 16.6 16.6v330.8c0 9.2-7.4 16.6-16.6 16.6zm-330.8-356.8c-5.2 0-9.4 4.2-9.4 9.4v330.8c0 5.2 4.2 9.4 9.4 9.4h330.8c5.2 0 9.4-4.2 9.4-9.4v-330.8c0-5.2-4.2-9.4-9.4-9.4z"/></g></svg>